inDegrees=yes
name=IK-offline
DataType=double
version=3
OpenSimVersion=4.1
endheader
time	pelvis_tilt	pelvis_list	pelvis_rotation	pelvis_tx	pelvis_ty	pelvis_tz	hip_flexion_r	hip_adduction_r	hip_rotation_r	knee_angle_r	ankle_angle_r	subtalar_angle_r	mtp_angle_r	hip_flexion_l	hip_adduction_l	hip_rotation_l	knee_angle_l	ankle_angle_l	subtalar_angle_l	mtp_angle_l	lumbar_extension	lumbar_bending	lumbar_rotation	neck_flex	neck_latbend	neck_rot	arm_flex_r	arm_add_r	arm_rot_r	elbow_flex_r	pro_sup_r	wrist_flex_r	wrist_dev_r	arm_flex_l	arm_add_l	arm_rot_l	elbow_flex_l	pro_sup_l	wrist_flex_l	wrist_dev_l
54.143077	-0.1021007481442675	-2.87946921455609	33.00657038274144	0	1	0	61.17039192210007	-6.658890795238902	-6.501210933108272	-56.34942982966748	-5.860239973655561	-7.188735117832209	0	63.35088585753754	-0.9649035175206279	0.7254690889777252	-61.50951652010423	-3.346150641528325	-3.723042199627571	0	-0.6829698803470805	4.449484400440399	-0.7364007788909658	-18.21005885839568	-5.978140386783681	2.744912684221161	31.23036609812074	7.644633701481515	24.86484163574962	54.24595830519922	55.66531727755355	-27.60931044613146	-24.99314102405679	17.24246009265379	-0.3621406925652991	37.00193288792426	67.20278265526611	47.13654031684684	-23.38770607983142	-24.96916521502009
54.1731061	-0.08442789037935511	-2.859123713478013	33.0269999664764	0	1	0	61.13790819593225	-6.685558891644151	-6.516856866866012	-56.34752816846271	-5.861514839102707	-7.177260365800062	0	63.32519108288894	-0.9485028165037127	0.7247048590211032	-61.50752100749611	-3.35101453004998	-3.734077127646416	0	-0.6754927361036531	4.41602815548228	-0.7493282040236019	-18.2444791476436	-5.938474300752536	2.756887901931978	31.18633266460705	7.652706733577477	24.79048302744037	54.26264255341936	55.73345869896075	-27.6127189482827	-24.99313350136362	17.23592675795162	-0.3858745548917146	37.05106572983662	67.20384940822869	47.09398452185651	-23.40606233139137	-24.96936419395575
54.2030542	-0.07216657962170897	-2.822342478482291	33.0552561377832	0	1	0	61.10976630808965	-6.725388383173533	-6.517336759482105	-56.36208395693124	-5.840675514325483	-7.196166343779115	0	63.3007746125187	-0.9294154659694199	0.7115705013730182	-61.51433573456373	-3.351605856352861	-3.734350808648756	0	-0.6569436581523628	4.344983465923064	-0.7567745704303387	-18.29032061239176	-5.876280389200478	2.795314673812842	31.14951008688015	7.68019642431949	24.64480824920244	54.28065160069116	55.96090876097808	-27.62525859536974	-24.99312461017266	17.23204795849633	-0.4271209392449567	37.15483081512745	67.22936672761804	46.99790817881102	-23.47262303103281	-24.97002461627267
54.2231191	-0.04758075651941281	-2.820411197900556	33.05779691411153	0	1	0	61.09165426646891	-6.724707009385521	-6.519766626105719	-56.3851216245282	-5.830153674927742	-7.166167548883964	0	63.2789601653473	-0.9341509588368091	0.7249741666274614	-61.5251004540009	-3.338264125078685	-3.746211071941548	0	-0.6663948106184086	4.316888588806689	-0.7348569263542941	-18.30718850614523	-5.828550048196271	2.811291831424322	31.16137384578926	7.723753525284202	24.58128876567525	54.28821734915751	56.14711391492234	-27.70912186931686	-24.99320329034573	17.24865813445185	-0.4664337069699066	37.21062526869712	67.25241356694521	46.95301049055573	-23.48173416076766	-24.97005973641202
54.2531555	-0.02523505643300075	-2.8116000258014	33.0571977034605	0	1	0	61.06912681305294	-6.722150928478268	-6.527638946638183	-56.40045372260921	-5.81295201799367	-7.17910717680803	0	63.2565389509996	-0.9484130577657841	0.7311568043535936	-61.53201207633944	-3.33043928765721	-3.744776904032095	0	-0.705890732357454	4.283611481889938	-0.699399916398365	-18.31459483323371	-5.788843262427257	2.78203457116186	31.22979343322485	7.757596822778028	24.52468953051847	54.24625131918643	56.1140693106958	-27.72564433000389	-24.99327489469889	17.31992528210032	-0.5027731335096309	37.29107130192648	67.26622326424487	46.87796206119009	-23.55412289765555	-24.97078518296315
54.2731729	0.001998036954657851	-2.790640504231821	33.06729680952923	0	1	0	61.03471546693344	-6.727495168385525	-6.520219605551294	-56.4039830750072	-5.81340041720342	-7.164576461656001	0	63.21980920866	-0.9351839126763908	0.7334627841660355	-61.53431952963134	-3.32590497083926	-3.753722932446204	0	-0.7135429063143488	4.244248267908263	-0.7114294038874566	-18.36305882449729	-5.76813141052545	2.753796499032433	31.28726761340185	7.770253219118556	24.47920629832203	54.16141261273857	55.9752605279303	-27.58411860742794	-24.9931475510343	17.33518903851309	-0.5498718749690958	37.33398449637548	67.27487626174381	46.80806978618207	-23.59610858047123	-24.9713553953834
54.3031834	0.01925372362639963	-2.778283322455025	33.05025210078107	0	1	0	61.01004514669152	-6.721105854209201	-6.508362018974474	-56.38762619564903	-5.832134905067646	-7.145111701782194	0	63.1968731324363	-0.9571965253295365	0.7269943979181114	-61.53080634618637	-3.324893320524559	-3.759121009655622	0	-0.7133183189698934	4.207233078156208	-0.6786056118591358	-18.41234957686063	-5.724160527056852	2.722954905097643	31.3451850817666	7.799025772552363	24.41427075609021	54.06953552576871	55.93945988471871	-27.42186650010418	-24.99297893053486	17.31666412410809	-0.5489402759417338	37.36102433118123	67.24413015909712	46.82058679099693	-23.59889163843499	-24.97143950726776
54.3231574	0.04319317014856502	-2.768352089452227	33.03499539500062	0	1	0	60.98651366050914	-6.711488966702241	-6.498657527936976	-56.37304377319786	-5.847207759360061	-7.139385684937956	0	63.16349478884075	-0.9863856222914194	0.7251011674993039	-61.52160944604939	-3.324517863294761	-3.76534006546477	0	-0.7486947715233345	4.225999070620845	-0.6629902905384787	-18.42258706331762	-5.721826224434789	2.69912898258781	31.32362920936557	7.77322479746371	24.48199733971858	53.97795413385371	55.55485988582646	-27.17621423603605	-24.99284476095176	17.33300716944319	-0.492483172571572	37.36012757327849	67.20384875976045	46.85540411310184	-23.61064420219384	-24.97143927414426
54.3533746	0.06240755532878253	-2.763414835763176	33.01766602954062	0	1	0	60.96528775512616	-6.691177425521252	-6.502994481684843	-56.34800355684862	-5.860097751539226	-7.16820617064846	0	63.13474256936201	-1.031710478108264	0.7145929984780488	-61.5059546898761	-3.330232589424362	-3.761012354611067	0	-0.8439564743202315	4.306475517546289	-0.6698894088296203	-18.35195288405843	-5.785232673627448	2.665279459808746	31.13435645357065	7.845370381568202	24.93050629709899	53.81186417655476	54.28323829200644	-26.88190521966835	-24.99268062994105	17.41310348426015	-0.3752395997180639	37.31800075754371	67.1341908251179	46.90860496570921	-23.61318880497131	-24.97187340116463
54.3731237	0.08473790293239146	-2.768491876658234	33.0415635592934	0	1	0	60.95153111232952	-6.682561672711899	-6.520505604257456	-56.34482789013585	-5.856600163928003	-7.177091727743072	0	63.11324556281182	-1.033968524283617	0.7460730906216975	-61.49746771376194	-3.327148263278933	-3.729653022137527	0	-0.9555405376202581	4.413643060625518	-0.6925542443070114	-18.26049905208028	-5.864418517723875	2.592865049949664	30.80971067471217	8.123360735545599	25.66210551215216	53.42342962060839	51.72183870806879	-26.25866461919255	-24.99226771285444	17.51756040057329	-0.2756574838074306	37.30938223798384	67.10630798260529	46.89090758304746	-23.64379540559779	-24.97239389232771
54.4031525	0.08904136566499195	-2.777970228425256	33.05926794952504	0	1	0	60.95563494077098	-6.688684234781263	-6.535537441025536	-56.34236157557167	-5.860861508590996	-7.174413613198708	0	63.11846381125949	-1.023574503052603	0.7589200096897224	-61.50215278910128	-3.326643434798631	-3.726252064360468	0	-1.093594554881354	4.503660835154741	-0.7026676733312965	-18.11570873457549	-5.944379495780819	2.510519165147032	30.50070135600219	8.454468342375616	26.27445747726023	52.91564377358128	48.70565660507518	-25.07095525658154	-24.99023605826869	17.66412311768624	-0.2060302831976964	37.30954944387379	67.11840375418375	46.87458384896039	-23.68666895934313	-24.97277812189294
54.4231044	0.08051386582125533	-2.752849848886307	33.05839037924305	0	1	0	60.9594239530003	-6.700143226487836	-6.515910848413024	-56.35000449942665	-5.855677297406878	-7.185349868383403	0	63.11472400296798	-1.033191677013736	0.7110435663619791	-61.50850186787445	-3.325687598261132	-3.733101538819338	0	-1.237009569014759	4.474263165096686	-0.6730999292111365	-17.97076451577216	-5.95534270073842	2.462018837831502	30.53387395434312	8.599140805135276	26.27287640012884	52.76109994819215	47.65084995013878	-24.39308645730264	-24.98875868565543	17.82574895445152	-0.2276774646046406	37.32520145601427	67.12683021621153	46.89755356199863	-23.69242046500069	-24.97218271192132
54.4530966	0.08152853923837576	-2.758343848826534	33.07631267927277	0	1	0	60.96093644589996	-6.692715451560447	-6.522806302903963	-56.35947595403497	-5.848899379018421	-7.185563561957754	0	63.11954978001432	-1.017151769591426	0.709445596893743	-61.51747645640632	-3.321922465362622	-3.745303771651212	0	-1.260450667067926	4.476707703070564	-0.7108627320549873	-17.95390130701499	-5.987030109153621	2.443942464166804	30.65471137702952	8.606958886024906	26.05731539896365	52.86928688477346	47.93447756456084	-24.35674203600703	-24.98888223094638	17.83437593116729	-0.2284245477762752	37.37824870714113	67.15414978911392	46.68756186747892	-23.80634736703585	-24.97431395114474
54.4731192	0.07540308994485209	-2.757245799866067	33.10146654888172	0	1	0	60.96192329856385	-6.703475535616741	-6.524714035047121	-56.36367649839451	-5.844517935855563	-7.189076061427321	0	63.12250700261694	-0.9830820774924955	0.7015180329081611	-61.52110223062542	-3.316573090381616	-3.753581360579831	0	-1.208750924443138	4.489445964008111	-0.752636752486508	-18.0012026076055	-6.023912884918754	2.430061532609852	30.69612396496629	8.522446281434375	25.86971235950925	53.10155676421364	48.48939405983553	-24.69169665336368	-24.98982499239582	17.78864469794572	-0.2474730418408634	37.3541636507714	67.2387611886341	46.74393829197494	-23.72075947095699	-24.97170806075438
54.4930923	0.07089794390706337	-2.761576702484785	33.12757731181264	0	1	0	60.96751712226928	-6.727027013888301	-6.543548177665145	-56.37513484675494	-5.82998371325069	-7.217251594332478	0	63.13097086103096	-0.937902770084175	0.7203998172665613	-61.52949623731852	-3.309932373512281	-3.751286872518669	0	-1.160959101762465	4.517799544830006	-0.7922082795609263	-18.01761364676792	-6.057107214137544	2.427686613927826	30.7001527790794	8.399656202851043	25.77552628279901	53.36064317119911	48.91255821259128	-25.09169940267794	-24.99079298310301	17.73696107971353	-0.2698799413644702	37.37478990742857	67.2572968858441	46.69968823063878	-23.74436023784631	-24.97245052305118
54.5231165	0.07347214681216988	-2.760146309593434	33.15211612282094	0	1	0	60.96338373070379	-6.761648101779023	-6.555918044345677	-56.38409014406418	-5.827917763442039	-7.196472976487095	0	63.12730900251022	-0.9080018297641839	0.7344997839459352	-61.52958205175815	-3.305178142837187	-3.765483275456839	0	-1.222637920837023	4.55213812315346	-0.7661688102480364	-17.91847870340954	-6.068755430159158	2.375955457156038	30.7993077959349	8.215730144068129	25.6550887265148	53.67067245458011	49.26274872622585	-25.50345656315431	-24.99150422967438	17.77485826752755	-0.2627485823541596	37.43942460489063	67.27652149975812	46.68710918610302	-23.69943961271567	-24.97197639498367
